<svg xmlns="http://www.w3.org/2000/svg" version="1.1" xmlns:xlink="http://www.w3.org/1999/xlink" width="1000" height="1000"><g clip-path="url(#SvgjsClipPath1001)"><rect width="1000" height="1000" fill="#ffffff"></rect><g transform="matrix(3.5,0,0,3.5,150,150)"><svg xmlns="http://www.w3.org/2000/svg" version="1.1" xmlns:xlink="http://www.w3.org/1999/xlink" width="200" height="200"><svg xmlns="http://www.w3.org/2000/svg" version="1.1" xmlns:xlink="http://www.w3.org/1999/xlink" viewBox="0 0 200 200"><rect width="200" height="200" fill="url('#gradient')"></rect><defs><linearGradient id="gradient" gradientTransform="rotate(196 0.5 0.5)"><stop offset="0%" stop-color="#3c73c0"></stop><stop offset="100%" stop-color="#5579cf"></stop></linearGradient><clipPath id="SvgjsClipPath1001"><rect width="1000" height="1000" x="0" y="0" rx="350" ry="350"></rect></clipPath></defs><g><g fill="#ffffff" transform="matrix(2.9696530295183843,0,0,2.9696530295183843,12.810633584256621,121.97777541707305)" stroke="#263054" stroke-width="0.2"><path d="M6.69-4.82L4.50-4.82L4.50 0L1.07 0L1.07-14.22L6.75-14.22Q8.38-14.22 9.63-13.62Q10.89-13.02 11.58-11.91Q12.27-10.80 12.27-9.39L12.27-9.39Q12.27-7.31 10.78-6.07Q9.29-4.82 6.69-4.82L6.69-4.82ZM4.50-11.57L4.50-7.47L6.75-7.47Q7.74-7.47 8.27-7.97Q8.79-8.47 8.79-9.38L8.79-9.38Q8.79-10.37 8.25-10.97Q7.71-11.56 6.79-11.57L6.79-11.57L4.50-11.57ZM25.73-7.60L25.73-1.76Q24.94-0.88 23.42-0.34Q21.89 0.20 20.08 0.20L20.08 0.20Q17.29 0.20 15.62-1.51Q13.95-3.22 13.83-6.27L13.83-6.27L13.82-7.50Q13.82-9.60 14.56-11.17Q15.30-12.73 16.68-13.58Q18.07-14.42 19.88-14.42L19.88-14.42Q22.54-14.42 24.01-13.21Q25.48-11.99 25.72-9.58L25.72-9.58L22.42-9.58Q22.25-10.77 21.66-11.28Q21.07-11.79 20-11.79L20-11.79Q18.71-11.79 18.01-10.69Q17.30-9.60 17.29-7.57L17.29-7.57L17.29-6.71Q17.29-4.58 18.02-3.51Q18.75-2.44 20.31-2.44L20.31-2.44Q21.65-2.44 22.30-3.04L22.30-3.04L22.30-5.24L19.92-5.24L19.92-7.60L25.73-7.60ZM31.04-15L31.04 0L27.74 0L27.74-15L31.04-15ZM32.67-4.82L32.66-5.38Q32.66-6.96 33.27-8.20Q33.89-9.43 35.04-10.10Q36.19-10.76 37.74-10.76L37.74-10.76Q40.12-10.76 41.48-9.29Q42.85-7.82 42.85-5.29L42.85-5.29L42.85-5.18Q42.85-2.71 41.48-1.25Q40.11 0.20 37.76 0.20L37.76 0.20Q35.51 0.20 34.14-1.16Q32.77-2.51 32.67-4.82L32.67-4.82ZM35.96-5.77L35.95-5.18Q35.95-3.71 36.41-3.03Q36.87-2.34 37.76-2.34L37.76-2.34Q39.52-2.34 39.56-5.05L39.56-5.05L39.56-5.38Q39.56-8.22 37.74-8.22L37.74-8.22Q36.09-8.22 35.96-5.77L35.96-5.77ZM51.77-10.57L53.43-4.34L54.49-10.57L57.65-10.57L55.16 0L52.37 0L50.63-6.27L48.87 0L46.08 0L43.59-10.57L46.75-10.57L47.79-4.19L49.47-10.57L51.77-10.57Z"></path></g></g></svg></svg></g></g></svg>